<svg width="1000" height="1000" viewBox="0 0 1000 1000" fill="none" xmlns="http://www.w3.org/2000/svg">
<path d="M500 1000L500 500L691.392 962.061C632.438 986.507 567.795 1000 500 1000Z" fill="#100E0E"/>
<path fill-rule="evenodd" clip-rule="evenodd" d="M500 500L853.553 853.553C807.499 899.607 752.503 936.719 691.392 962.061L500 500Z" fill="#851212"/>
<path fill-rule="evenodd" clip-rule="evenodd" d="M962.061 691.392C936.719 752.503 899.607 807.499 853.553 853.553L500 500L962.061 691.392Z" fill="#100E0E"/>
<path fill-rule="evenodd" clip-rule="evenodd" d="M1000 500C1000 567.795 986.507 632.438 962.061 691.392L500 500L1000 500Z" fill="#851212"/>
<path fill-rule="evenodd" clip-rule="evenodd" d="M962.061 308.608C986.507 367.561 1000 432.205 1000 500L500 500L962.061 308.608Z" fill="#100E0E"/>
<path fill-rule="evenodd" clip-rule="evenodd" d="M962.061 308.608L500 500L853.553 146.447C899.608 192.501 936.719 247.497 962.061 308.608Z" fill="#851212"/>
<path fill-rule="evenodd" clip-rule="evenodd" d="M691.392 37.9394C752.503 63.2807 807.499 100.392 853.553 146.447L500 500L691.392 37.9394Z" fill="#100E0E"/>
<path fill-rule="evenodd" clip-rule="evenodd" d="M691.392 37.9394L500 500V0C567.795 0 632.438 13.4927 691.392 37.9394Z" fill="#851212"/>
<path fill-rule="evenodd" clip-rule="evenodd" d="M308.608 37.9394C367.561 13.4927 432.205 0 500 0V500L308.608 37.9394Z" fill="#100E0E"/>
<path fill-rule="evenodd" clip-rule="evenodd" d="M308.608 37.9394L500 500L146.447 146.447C192.501 100.392 247.497 63.2807 308.608 37.9394Z" fill="#851212"/>
<path fill-rule="evenodd" clip-rule="evenodd" d="M37.9394 308.608C63.2807 247.497 100.392 192.501 146.447 146.447L500 500L37.9394 308.608Z" fill="#100E0E"/>
<path fill-rule="evenodd" clip-rule="evenodd" d="M37.9394 308.608L500 500H0C0 432.205 13.4927 367.561 37.9394 308.608Z" fill="#851212"/>
<path fill-rule="evenodd" clip-rule="evenodd" d="M37.9394 691.392C13.4927 632.438 0 567.795 0 500H500L37.9394 691.392Z" fill="#100E0E"/>
<path fill-rule="evenodd" clip-rule="evenodd" d="M37.9394 691.392L500 500L146.447 853.553C100.392 807.499 63.2807 752.503 37.9394 691.392Z" fill="#851212"/>
<path fill-rule="evenodd" clip-rule="evenodd" d="M308.608 962.061C247.497 936.719 192.501 899.608 146.447 853.553L500 500L308.608 962.061Z" fill="#100E0E"/>
<path fill-rule="evenodd" clip-rule="evenodd" d="M500 500L500 1000C432.205 1000 367.561 986.507 308.608 962.061L500 500Z" fill="#851212"/>
<path d="M499.5 999.498C432.131 999.432 367.886 986.029 309.262 961.788L499.5 502.514L499.5 999.498ZM690.737 961.788C632.113 986.029 567.869 999.432 500.5 999.498L500.5 502.514L690.737 961.788ZM308.338 961.405C247.629 936.159 192.974 899.281 147.154 853.552L498.576 502.13L308.338 961.405ZM852.845 853.552C807.025 899.281 752.37 936.159 691.661 961.405L501.423 502.13L852.845 853.552ZM146.447 852.845C100.718 807.025 63.8398 752.37 38.5938 691.661L497.869 501.423L146.447 852.845ZM961.405 691.661C936.159 752.37 899.281 807.025 853.552 852.845L502.13 501.423L961.405 691.661ZM497.486 500.5L38.2109 690.737C13.97 632.113 0.56795 567.869 0.501953 500.5H497.486ZM999.498 500.5C999.432 567.869 986.029 632.113 961.788 690.737L502.514 500.5L999.498 500.5ZM961.788 309.262C986.029 367.886 999.432 432.131 999.498 499.5L502.514 499.5L961.788 309.262ZM497.486 499.5H0.501953C0.56795 432.131 13.9698 367.886 38.2109 309.262L497.486 499.5ZM497.869 498.576L38.5938 308.338C63.8399 247.63 100.718 192.974 146.447 147.154L497.869 498.576ZM853.552 147.154C899.281 192.974 936.159 247.63 961.405 308.338L502.13 498.576L853.552 147.154ZM498.576 497.869L147.154 146.447C192.974 100.718 247.63 63.8399 308.338 38.5937L498.576 497.869ZM691.661 38.5937C752.37 63.8398 807.025 100.718 852.845 146.447L501.423 497.869L691.661 38.5937ZM499.5 497.485L309.262 38.2109C367.886 13.9698 432.131 0.566974 499.5 0.500977V497.485ZM500.5 0.500977C567.869 0.566973 632.113 13.97 690.737 38.2109L500.5 497.485V0.500977Z" stroke="black"/>
<circle cx="500" cy="500" r="116" fill="#100E0E"/>
<g filter="url(#filter0_i_2082_2)">
<circle cx="500" cy="500" r="500" fill="#D9D9D9" fill-opacity="0.01"/>
</g>
<circle cx="500" cy="500" r="498" stroke="white" stroke-opacity="0.8" stroke-width="4"/>
<defs>
<filter id="filter0_i_2082_2" x="0" y="0" width="1000" height="1000" filterUnits="userSpaceOnUse" color-interpolation-filters="sRGB">
<feFlood flood-opacity="0" result="BackgroundImageFix"/>
<feBlend mode="normal" in="SourceGraphic" in2="BackgroundImageFix" result="shape"/>
<feColorMatrix in="SourceAlpha" type="matrix" values="0 0 0 0 0 0 0 0 0 0 0 0 0 0 0 0 0 0 127 0" result="hardAlpha"/>
<feOffset/>
<feGaussianBlur stdDeviation="8.05"/>
<feComposite in2="hardAlpha" operator="arithmetic" k2="-1" k3="1"/>
<feColorMatrix type="matrix" values="0 0 0 0 0 0 0 0 0 0 0 0 0 0 0 0 0 0 1 0"/>
<feBlend mode="normal" in2="shape" result="effect1_innerShadow_2082_2"/>
</filter>
</defs>
</svg>
